<svg width="24" height="40" viewBox="0 0 24 40" fill="none" xmlns="http://www.w3.org/2000/svg">
<g clip-path="url(#clip0_330_496)">
<path d="M18 23.75C18 25.4833 17.3917 26.9583 16.175 28.175C14.9583 29.3917 13.4833 30 11.75 30C10.0167 30 8.54167 29.3917 7.325 28.175C6.10833 26.9583 5.5 25.4833 5.5 23.75V14.5C5.5 13.25 5.9375 12.1875 6.8125 11.3125C7.6875 10.4375 8.75 10 10 10C11.25 10 12.3125 10.4375 13.1875 11.3125C14.0625 12.1875 14.5 13.25 14.5 14.5V23.25C14.5 24.0167 14.2333 24.6667 13.7 25.2C13.1667 25.7333 12.5167 26 11.75 26C10.9833 26 10.3333 25.7333 9.8 25.2C9.26667 24.6667 9 24.0167 9 23.25V14H11V23.25C11 23.4667 11.0708 23.6458 11.2125 23.7875C11.3542 23.9292 11.5333 24 11.75 24C11.9667 24 12.1458 23.9292 12.2875 23.7875C12.4292 23.6458 12.5 23.4667 12.5 23.25V14.5C12.4833 13.8 12.2375 13.2083 11.7625 12.725C11.2875 12.2417 10.7 12 10 12C9.3 12 8.70833 12.2417 8.225 12.725C7.74167 13.2083 7.5 13.8 7.5 14.5V23.75C7.48333 24.9333 7.89167 25.9375 8.725 26.7625C9.55833 27.5875 10.5667 28 11.75 28C12.9167 28 13.9083 27.5875 14.725 26.7625C15.5417 25.9375 15.9667 24.9333 16 23.75V14H18V23.75Z" fill="#49454F"/>
</g>
<defs>
<clipPath id="clip0_330_496">
<rect width="24" height="40" rx="12" fill="white"/>
</clipPath>
</defs>
</svg>
