<svg width="48" height="48" viewBox="0 0 48 48" fill="none" xmlns="http://www.w3.org/2000/svg">
<g clip-path="url(#clip0_227_248)">
<path d="M29 34C28.1667 34 27.4583 33.7083 26.875 33.125C26.2917 32.5417 26 31.8333 26 31C26 30.9 26.025 30.6667 26.075 30.3L19.05 26.2C18.7833 26.45 18.475 26.6458 18.125 26.7875C17.775 26.9292 17.4 27 17 27C16.1667 27 15.4583 26.7083 14.875 26.125C14.2917 25.5417 14 24.8333 14 24C14 23.1667 14.2917 22.4583 14.875 21.875C15.4583 21.2917 16.1667 21 17 21C17.4 21 17.775 21.0708 18.125 21.2125C18.475 21.3542 18.7833 21.55 19.05 21.8L26.075 17.7C26.0417 17.5833 26.0208 17.4708 26.0125 17.3625C26.0042 17.2542 26 17.1333 26 17C26 16.1667 26.2917 15.4583 26.875 14.875C27.4583 14.2917 28.1667 14 29 14C29.8333 14 30.5417 14.2917 31.125 14.875C31.7083 15.4583 32 16.1667 32 17C32 17.8333 31.7083 18.5417 31.125 19.125C30.5417 19.7083 29.8333 20 29 20C28.6 20 28.225 19.9292 27.875 19.7875C27.525 19.6458 27.2167 19.45 26.95 19.2L19.925 23.3C19.9583 23.4167 19.9792 23.5292 19.9875 23.6375C19.9958 23.7458 20 23.8667 20 24C20 24.1333 19.9958 24.2542 19.9875 24.3625C19.9792 24.4708 19.9583 24.5833 19.925 24.7L26.95 28.8C27.2167 28.55 27.525 28.3542 27.875 28.2125C28.225 28.0708 28.6 28 29 28C29.8333 28 30.5417 28.2917 31.125 28.875C31.7083 29.4583 32 30.1667 32 31C32 31.8333 31.7083 32.5417 31.125 33.125C30.5417 33.7083 29.8333 34 29 34Z" fill="#49454F"/>
</g>
<defs>
<clipPath id="clip0_227_248">
<rect x="4" y="4" width="40" height="40" rx="20" fill="white"/>
</clipPath>
</defs>
</svg>
