<svg width="48" height="48" viewBox="0 0 48 48" fill="none" xmlns="http://www.w3.org/2000/svg">
<g clip-path="url(#clip0_227_253)">
<path d="M18 26H30V24H18V26ZM18 23H30V21H18V23ZM18 20H30V18H18V20ZM16 30C15.45 30 14.9792 29.8042 14.5875 29.4125C14.1958 29.0208 14 28.55 14 28V16C14 15.45 14.1958 14.9792 14.5875 14.5875C14.9792 14.1958 15.45 14 16 14H32C32.55 14 33.0208 14.1958 33.4125 14.5875C33.8042 14.9792 34 15.45 34 16V34L30 30H16Z" fill="#49454F"/>
</g>
<defs>
<clipPath id="clip0_227_253">
<rect x="4" y="4" width="40" height="40" rx="20" fill="white"/>
</clipPath>
</defs>
</svg>
